<svg width="34" height="36" viewBox="0 0 34 36" fill="none" xmlns="http://www.w3.org/2000/svg">
<g filter="url(#filter0_d)">
<path fill-rule="evenodd" clip-rule="evenodd" d="M17 33C25.8366 33 33 25.8366 33 17C33 8.16344 25.8366 1 17 1C8.16344 1 1 8.16344 1 17C1 25.8366 8.16344 33 17 33ZM5 17C5 23.6274 10.3726 29 17 29C18.7844 29 20.4779 28.6105 22 27.9119L7.25209 10C5.83476 11.9702 5 14.3876 5 17ZM17 5C23.6274 5 29 10.3726 29 17C29 20.3212 27.6508 23.3273 25.4705 25.5L10 7.25209C11.9702 5.83476 14.3876 5 17 5Z" fill="#EC1A1A"/>
<path d="M17 33.5C26.1127 33.5 33.5 26.1127 33.5 17C33.5 7.8873 26.1127 0.5 17 0.5C7.8873 0.5 0.5 7.8873 0.5 17C0.5 26.1127 7.8873 33.5 17 33.5ZM17 28.5C10.6487 28.5 5.5 23.3513 5.5 17C5.5 14.7305 6.15691 12.6157 7.29102 10.8339L21.1889 27.7134C19.8914 28.2211 18.4788 28.5 17 28.5ZM17 5.5C23.3513 5.5 28.5 10.6487 28.5 17C28.5 19.9876 27.3613 22.7085 25.4932 24.7535L10.7398 7.35155C12.5411 6.18032 14.6905 5.5 17 5.5Z" stroke="black"/>
</g>
<defs>
<filter id="filter0_d" x="0" y="0" width="34" height="36" filterUnits="userSpaceOnUse" color-interpolation-filters="sRGB">
<feFlood flood-opacity="0" result="BackgroundImageFix"/>
<feColorMatrix in="SourceAlpha" type="matrix" values="0 0 0 0 0 0 0 0 0 0 0 0 0 0 0 0 0 0 127 0"/>
<feOffset dy="2"/>
<feColorMatrix type="matrix" values="0 0 0 0 0 0 0 0 0 0 0 0 0 0 0 0 0 0 1 0"/>
<feBlend mode="normal" in2="BackgroundImageFix" result="effect1_dropShadow"/>
<feBlend mode="normal" in="SourceGraphic" in2="effect1_dropShadow" result="shape"/>
</filter>
</defs>
</svg>
